<?xml version="1.0" standalone="no"?>
<!DOCTYPE svg PUBLIC "-//W3C//DTD SVG 20010904//EN"
 "http://www.w3.org/TR/2001/REC-SVG-20010904/DTD/svg10.dtd">
<svg version="1.0" xmlns="http://www.w3.org/2000/svg"
 width="512.000000pt" height="512.000000pt" viewBox="0 0 512.000000 512.000000"
 preserveAspectRatio="xMidYMid meet">
<metadata>
Created by potrace 1.11, written by Peter Selinger 2001-2013
</metadata>
<g transform="translate(0.000000,512.000000) scale(0.100000,-0.100000)"
fill="#000000" stroke="none">
<path d="M2615 3994 c-134 -29 -285 -105 -405 -206 -57 -48 -169 -174 -197
-222 -4 -7 -53 -25 -108 -39 -215 -54 -342 -118 -473 -242 -135 -127 -215
-267 -264 -462 -31 -120 -33 -432 -5 -563 67 -309 239 -538 501 -665 99 -49
249 -91 355 -102 l66 -6 54 -64 c115 -136 300 -255 476 -305 69 -20 102 -23
235 -22 140 0 164 3 245 28 316 97 629 342 752 591 62 123 93 255 93 389 0
115 -15 195 -61 326 -22 63 -43 127 -46 141 -3 14 7 63 21 109 97 306 62 585
-105 832 -149 220 -469 421 -771 482 -96 20 -269 19 -363 0z m432 -192 c230
-78 445 -222 547 -366 90 -127 128 -229 142 -386 6 -70 -9 -218 -25 -247 -4
-8 -24 11 -53 51 -109 147 -291 316 -463 429 -234 154 -529 252 -828 276 -65
5 -121 12 -125 16 -18 18 173 161 281 210 100 46 152 55 297 52 120 -4 145 -7
227 -35z m-562 -428 c442 -67 865 -344 1101 -721 l46 -72 -47 -88 c-98 -186
-290 -404 -468 -530 -236 -167 -563 -282 -849 -299 l-103 -7 -47 79 c-101 169
-166 335 -210 536 -19 87 -22 134 -22 303 0 170 3 216 23 305 32 150 83 302
139 410 l47 95 65 5 c86 8 214 1 325 -16z m-641 -131 c-189 -474 -171 -988 51
-1450 29 -62 49 -113 43 -113 -5 0 -51 14 -102 31 -255 85 -420 265 -493 537
-24 88 -26 114 -26 287 0 223 13 290 89 443 79 161 207 270 406 347 35 13 66
24 69 25 3 0 -13 -48 -37 -107z m1911 -974 c21 -92 19 -258 -4 -351 -49 -189
-171 -345 -376 -481 -117 -77 -184 -110 -298 -149 -172 -57 -366 -49 -525 23
-71 32 -172 101 -216 148 l-30 31 43 0 c24 0 98 11 165 25 485 98 881 362
1160 773 56 81 57 81 81 -19z"/>
</g>
</svg>
